<mxfile host="app.diagrams.net" modified="2024-05-05T15:22:39.623Z" agent="Mozilla/5.0 (X11; Linux x86_64; rv:125.0) Gecko/20100101 Firefox/125.0" version="24.3.1" etag="FbQa5eFO7IumzwOTquRn" type="github">
  <diagram name="Seite-1" id="MXwEiI5EgVy7EaYy17rG">
    <mxGraphModel>
      <root>
        <mxCell id="0" />
        <mxCell id="1" parent="0" />
      </root>
    </mxGraphModel>
  </diagram>
</mxfile>
